<svg width="328" height="120" viewBox="0 0 328 120" fill="none" xmlns="http://www.w3.org/2000/svg">
<rect width="120" height="120" fill="#033529"/>
<path d="M99.9998 74.4201C97.1998 76.5201 93.7998 77.6201 90.4998 78.6201C86.6998 79.8201 82.7998 80.7201 78.8998 81.5201C76.8998 81.9201 74.7998 82.4201 72.7998 82.9201C71.1998 83.3201 69.6998 83.7201 68.0998 84.3201C66.6998 84.8201 65.3998 85.5201 64.3998 86.5201C63.0998 87.8201 61.7998 89.8201 61.7998 92.6201V104.62H72.3998V98.7201C72.3998 97.7201 72.5998 96.6201 73.1998 95.8201C73.8998 94.8201 74.9998 94.3201 76.0998 93.9201C77.3998 93.5201 78.5998 93.2201 79.8998 92.9201C80.6998 92.7201 81.4998 92.5201 82.2998 92.3201C84.2998 91.7201 86.2998 91.0201 88.2998 90.3201C92.9998 88.7201 97.3998 85.5201 100.2 81.2201C102.3 78.1201 103.6 74.4201 103.9 70.6201C102.7 72.0201 101.57 73.2801 100.17 74.2801L99.9998 74.4201Z" fill="white"/>
<path d="M51.5002 49.7004C50.9002 49.0004 50.3002 48.3004 49.9002 47.5004C49.5002 46.6004 49.4002 45.6004 49.4002 44.6004V28.1004C49.4002 27.2004 48.6002 26.4004 47.7002 26.4004C46.8002 26.4004 46.0002 27.1004 46.0002 28.1004V59.1004C46.0002 59.1004 45.7002 62.0004 48.4002 64.0004C49.7002 64.9004 51.1002 65.6004 52.5002 66.3004C54.3002 67.1004 56.3002 67.9004 58.2002 68.5004V60.4004C58.2002 59.4004 58.2002 58.4004 57.9002 57.5004C57.5002 56.3004 56.7002 55.3004 55.9002 54.4004C55.1002 53.5004 54.2002 52.6004 53.4002 51.7004L51.5002 49.7004Z" fill="white"/>
<path d="M63.7998 50.3C64.4998 49.4 65.2998 48.5 65.5998 47.3C65.9998 46.2 65.8998 45 65.5998 43.9C65.0998 42.1 64.1998 40.4 63.2998 38.7C62.9998 38 62.6998 37.4 62.3998 36.8C62.0998 36.3 61.9998 35.9 61.6998 35.3V17.7C61.6998 16.8 60.9998 16 59.9998 16C58.9998 16 58.2998 16.7 58.2998 17.7V35.2C57.9998 35.8 57.7998 36.2 57.5998 36.7C57.2998 37.3 56.9998 37.8 56.6998 38.4C55.7998 40.2 54.8998 41.9 54.3998 43.8C54.0998 44.9 54.0998 46.1 54.3998 47.2C54.7998 48.3 55.4998 49.3 56.1998 50.2L60.0198 54.3L63.7998 50.3Z" fill="white"/>
<path d="M84.8 77.1996C86.4 76.8996 87.9 76.4996 89.5 75.9996C93 74.8996 96.4 73.2996 99.3 70.8996C101.9 68.7996 104.1 66.0996 105.7 62.9996C106.7 61.0996 107.4 59.0996 108 57.0996C106.5 58.4996 105.19 59.5696 103.39 60.5096L103 60.6996C99.5 62.3996 95.6 63.2996 91.8 63.9996C89.6 64.3996 87.3 64.7996 85 65.0996C84.3 65.2096 83.7 65.2996 83 65.3996C79.7 65.7996 76.3 66.2996 73.1 67.0996C71 67.5996 69 68.2996 67.1 69.3996C65.8 70.0996 64.5 70.8996 63.6 72.0996C62.8 73.0996 62.2 74.2996 62 75.5996C61.7 77.1996 61.83 78.7796 61.8 80.4996C61.8 81.8996 61.8 83.6996 61.8 85.0996C62.8 84.0996 63.9 83.0996 65.3 82.3996C67.5 81.2996 69.9 80.5996 72.2 79.9996C74.8 79.2996 80.2 78.1996 80.2 78.1996L84.8 77.1996Z" fill="white"/>
<path d="M39.8 78.1996C39.8 78.1996 45.2 79.2996 47.8 79.9996C50.1 80.5996 52.5 81.2996 54.7 82.3996C56.1 83.0996 57.2 84.0996 58.2 85.0996C58.2 83.6996 58.2 81.8996 58.2 80.4996C58.17 78.7796 58.3 77.1996 58 75.5996C57.8 74.2996 57.2 73.0996 56.4 72.0996C55.5 70.8996 54.2 70.0996 52.9 69.3996C51 68.2996 49 67.5996 46.9 67.0996C43.7 66.2996 40.3 65.7996 37 65.3996C36.3 65.2996 35.7 65.2096 35 65.0996C32.7 64.7996 30.4 64.3996 28.2 63.9996C24.4 63.2996 20.5 62.3996 17 60.6996L16.61 60.5096C14.81 59.5696 13.5 58.4996 12 57.0996C12.6 59.0996 13.3 61.0996 14.3 62.9996C15.9 66.0996 18.1 68.7996 20.7 70.8996C23.6 73.2996 27 74.8996 30.5 75.9996C32.1 76.4996 33.6 76.8996 35.2 77.1996L39.8 78.1996Z" fill="white"/>
<path d="M66.5998 51.7004C65.7998 52.6004 64.8998 53.5004 64.0998 54.4004C63.2998 55.3004 62.4998 56.3004 62.0998 57.5004C61.7998 58.4004 61.7998 59.4004 61.7998 60.4004V68.5004C63.6998 67.9004 65.6998 67.1004 67.4998 66.3004C68.8998 65.6004 70.2998 64.9004 71.5998 64.0004C74.2998 62.0004 73.9998 59.1004 73.9998 59.1004V49.9004V28.1004C73.9998 27.1004 73.1998 26.4004 72.2998 26.4004C71.3998 26.4004 70.5998 27.2004 70.5998 28.1004V44.6004C70.5998 45.6004 70.4998 46.6004 70.0998 47.5004C69.6998 48.3004 69.0998 49.0004 68.4998 49.7004L66.5998 51.7004Z" fill="white"/>
<path d="M19.8301 74.2801C18.4301 73.2801 17.3001 72.0201 16.1001 70.6201C16.4001 74.4201 17.7001 78.1201 19.8001 81.2201C22.6001 85.5201 27.0001 88.7201 31.7001 90.3201C33.7001 91.0201 35.7001 91.7201 37.7001 92.3201C38.5001 92.5201 39.3001 92.7201 40.1001 92.9201C41.4001 93.2201 42.6001 93.5201 43.9001 93.9201C45.0001 94.3201 46.1001 94.8201 46.8001 95.8201C47.4001 96.6201 47.6001 97.7201 47.6001 98.7201V101.32C47.6001 102.52 47.6001 103.52 47.6001 104.62H53.2001C54.8001 104.62 56.6001 104.62 58.2001 104.62V94.3201C58.2001 93.4201 58.2001 93.6201 58.2001 92.6201C58.2001 89.8201 56.9001 87.8201 55.6001 86.5201C54.6001 85.5201 53.3001 84.8201 51.9001 84.3201C50.3001 83.7201 48.8001 83.3201 47.2001 82.9201C45.2001 82.4201 43.1001 81.9201 41.1001 81.5201C37.2001 80.7201 33.3001 79.8201 29.5001 78.6201C26.2001 77.6201 22.8001 76.5201 20.0001 74.4201L19.8301 74.2801Z" fill="white"/>
<rect width="200" height="120" transform="translate(128)" fill="#033529"/>
<path d="M289.655 63.4561C293.164 63.4561 296.058 63.8854 298.335 64.7441C300.612 65.6027 302.311 66.9094 303.431 68.6641C304.551 70.3814 305.111 72.5654 305.111 75.2161C305.111 77.1574 304.738 78.8187 303.991 80.2001C303.282 81.5814 302.348 82.7387 301.191 83.6721C300.034 84.5681 298.783 85.2961 297.439 85.8561L308.919 103.44H300.855L291.279 87.6481H285.455V103.44H278.287V63.4561H289.655ZM289.207 69.4481H285.455V81.7681H289.431C291.41 81.7681 293.015 81.5254 294.247 81.0401C295.479 80.5547 296.375 79.8454 296.935 78.9121C297.532 77.9787 297.831 76.8214 297.831 75.4401C297.831 73.9841 297.514 72.8267 296.879 71.9681C296.244 71.0721 295.292 70.4374 294.023 70.0641C292.791 69.6534 291.186 69.4481 289.207 69.4481Z" fill="white"/>
<path d="M266.6 103.592L262.96 93.0084H247.896L244.312 103.592H236.696L251.368 63.4404H259.544L274.216 103.592H266.6ZM257.64 76.5444C257.491 76.0218 257.267 75.3124 256.968 74.4164C256.669 73.5204 256.371 72.6058 256.072 71.6724C255.811 70.7018 255.605 69.8991 255.456 69.2644C255.269 70.0111 255.027 70.8698 254.728 71.8404C254.467 72.8111 254.205 73.7258 253.944 74.5844C253.72 75.4431 253.533 76.0964 253.384 76.5444L249.856 86.8484H261.112L257.64 76.5444Z" fill="white"/>
<path d="M232.496 103.424H215.696V99.3364L220.512 97.5444V69.3764L215.696 67.5284V63.4404H232.496V67.5284L227.68 69.3764V97.5444L232.496 99.3364V103.424Z" fill="white"/>
<path d="M195.864 81.4885H210.984V101.816C208.856 102.526 206.672 103.067 204.432 103.44C202.192 103.814 199.653 104 196.816 104C192.784 104 189.368 103.198 186.568 101.592C183.768 99.9872 181.64 97.6538 180.184 94.5925C178.728 91.5312 178 87.7978 178 83.3925C178 79.2112 178.821 75.5898 180.464 72.5285C182.107 69.4672 184.459 67.0965 187.52 65.4165C190.619 63.7365 194.389 62.8965 198.832 62.8965C200.997 62.8965 203.088 63.1205 205.104 63.5685C207.157 63.9792 209.024 64.5578 210.704 65.3045L208.24 71.1845C206.971 70.5498 205.496 70.0272 203.816 69.6165C202.173 69.1685 200.456 68.9445 198.664 68.9445C195.939 68.9445 193.587 69.5418 191.608 70.7365C189.629 71.9312 188.099 73.6298 187.016 75.8325C185.971 77.9978 185.448 80.5552 185.448 83.5045C185.448 86.3418 185.859 88.8618 186.68 91.0645C187.501 93.2298 188.808 94.9285 190.6 96.1605C192.392 97.3552 194.725 97.9525 197.6 97.9525C198.571 97.9525 199.411 97.9152 200.12 97.8405C200.867 97.7658 201.539 97.6725 202.136 97.5605C202.771 97.4485 203.368 97.3365 203.928 97.2245V87.5925H195.864V81.4885Z" fill="white"/>
<path d="M162.928 68.9445C161.099 68.9445 159.475 69.2805 158.056 69.9525C156.637 70.6245 155.424 71.5952 154.416 72.8645C153.445 74.1338 152.699 75.6645 152.176 77.4565C151.691 79.2485 151.448 81.2645 151.448 83.5045C151.448 86.5285 151.859 89.1232 152.68 91.2885C153.501 93.4165 154.752 95.0592 156.432 96.2165C158.149 97.3738 160.296 97.9525 162.872 97.9525C164.589 97.9525 166.232 97.7845 167.8 97.4485C169.405 97.0752 171.085 96.5898 172.84 95.9925V102.096C171.197 102.768 169.536 103.254 167.856 103.552C166.213 103.851 164.309 104 162.144 104C158.037 104 154.64 103.16 151.952 101.48C149.264 99.7632 147.267 97.3738 145.96 94.3125C144.653 91.2138 144 87.5925 144 83.4485C144 80.4245 144.411 77.6618 145.232 75.1605C146.091 72.6592 147.304 70.4938 148.872 68.6645C150.477 66.8352 152.456 65.4165 154.808 64.4085C157.16 63.4005 159.867 62.8965 162.928 62.8965C164.944 62.8965 166.923 63.1392 168.864 63.6245C170.843 64.0725 172.691 64.7072 174.408 65.5285L171.944 71.4085C170.525 70.7738 169.051 70.2138 167.52 69.7285C166.027 69.2058 164.496 68.9445 162.928 68.9445Z" fill="white"/>
</svg>
